<svg width="34" height="34" viewBox="0 0 34 34" fill="none" xmlns="http://www.w3.org/2000/svg">
<path d="M25.2161 11.415L25.0841 10.749C24.9651 10.151 24.6961 9.58596 24.0831 9.36996C23.8861 9.30096 23.6631 9.27196 23.5131 9.12896C23.3611 8.98596 23.3171 8.76296 23.2821 8.55696C23.2171 8.17896 23.1571 7.80096 23.0901 7.42396C23.0331 7.09896 22.9881 6.73396 22.8401 6.43696C22.6451 6.03696 22.2431 5.80296 21.8441 5.64896C21.6393 5.57239 21.4303 5.50762 21.2181 5.45496C20.2181 5.19196 19.1681 5.09496 18.1411 5.03896C16.9078 4.97115 15.6713 4.99187 14.4411 5.10096C13.5261 5.18396 12.5611 5.28496 11.6911 5.60096C11.3731 5.71696 11.0451 5.85696 10.8031 6.10196C10.5061 6.40396 10.4101 6.87196 10.6261 7.24796C10.7801 7.51496 11.0411 7.70396 11.3181 7.82796C11.6781 7.98996 12.0551 8.11196 12.4411 8.19396C13.5161 8.43196 14.6301 8.52496 15.7281 8.56396C16.9461 8.61396 18.1651 8.57396 19.3781 8.44596C19.6771 8.41296 19.9761 8.37296 20.2741 8.32696C20.6261 8.27296 20.8521 7.81396 20.7481 7.49296C20.6241 7.10996 20.2911 6.96196 19.9141 7.01996C19.4481 7.09396 18.9541 7.12796 18.5321 7.16596C17.3551 7.24596 16.1741 7.24796 14.9961 7.17196C14.6095 7.14638 14.2237 7.1107 13.8391 7.06496C13.7531 7.05496 13.6591 7.03996 13.5811 7.02896C13.3381 6.99296 13.0971 6.94896 12.8571 6.89896C12.7461 6.87196 12.7461 6.71396 12.8571 6.68696H12.8621C13.1391 6.62696 13.4191 6.57896 13.7001 6.53996H13.7021C13.8331 6.53096 13.9651 6.50796 14.0961 6.49196C15.234 6.37386 16.3787 6.33376 17.5221 6.37196C18.1961 6.39096 18.8691 6.43896 19.5391 6.51596L19.7671 6.54696C20.0341 6.58696 20.3001 6.63496 20.5651 6.69196C20.9571 6.77696 21.4601 6.80496 21.6351 7.23396C21.6901 7.37096 21.7151 7.52196 21.7461 7.66496L22.0651 9.14896C22.0718 9.18078 22.072 9.21365 22.0655 9.24553C22.059 9.27741 22.046 9.30761 22.0273 9.33425C22.0087 9.36089 21.9847 9.3834 21.957 9.40038C21.9292 9.41737 21.8983 9.42846 21.8661 9.43296H21.8631C21.8261 9.43896 21.7881 9.44296 21.7511 9.44796C20.1781 9.64865 18.5938 9.74719 17.0081 9.74296C15.4369 9.74134 13.8674 9.6398 12.3091 9.43896C12.1691 9.42196 12.0161 9.39696 11.8921 9.37896C11.5661 9.33096 11.2431 9.27096 10.9191 9.21796C10.5261 9.15296 10.1511 9.18596 9.79605 9.37896C9.50605 9.53896 9.26905 9.78296 9.12105 10.08C8.96705 10.396 8.92205 10.74 8.85405 11.08C8.78505 11.42 8.67805 11.787 8.71905 12.136C8.80605 12.889 9.33205 13.501 10.0891 13.638C13.8325 14.306 17.6526 14.4326 21.4321 14.014C21.5039 14.0058 21.5766 14.0138 21.6449 14.0375C21.7131 14.0612 21.7752 14.0999 21.8266 14.1507C21.8779 14.2016 21.9172 14.2633 21.9415 14.3314C21.9658 14.3994 21.9745 14.4721 21.9671 14.544L21.8961 15.241L20.8781 25.148C20.8371 25.558 20.8311 25.98 20.7531 26.385C20.6311 27.022 20.2001 27.413 19.5711 27.556C18.9941 27.687 18.4061 27.756 17.8151 27.761C17.1591 27.765 16.5051 27.736 15.8491 27.739C15.1501 27.743 14.2931 27.679 13.7541 27.159C13.2791 26.701 13.2141 25.985 13.1491 25.366L12.4181 18.353L12.0961 15.259C12.0591 14.908 11.8101 14.564 11.4181 14.581C11.0821 14.596 10.7001 14.881 10.7401 15.26L10.9681 17.445L11.9171 26.557C12.0641 27.901 13.0911 28.625 14.3631 28.829C15.1051 28.949 15.8661 28.973 16.6201 28.985C17.5861 29.001 18.5621 29.038 19.5121 28.863C20.9201 28.605 21.9771 27.665 22.1281 26.206C22.4681 22.874 22.8111 19.543 23.1521 16.211L23.3671 14.124C23.3776 14.0205 23.4213 13.9231 23.4915 13.8464C23.5618 13.7697 23.6549 13.7176 23.7571 13.698C24.1591 13.62 24.5441 13.486 24.8311 13.18C25.2861 12.692 25.3771 12.057 25.2161 11.415ZM23.7381 12.187C23.5931 12.324 23.3751 12.388 23.1601 12.42C20.7441 12.779 18.2941 12.96 15.8521 12.88C14.1041 12.82 12.3751 12.626 10.6451 12.382C10.4751 12.358 10.2921 12.327 10.1751 12.202C9.95505 11.966 10.0641 11.492 10.1211 11.207C10.1731 10.947 10.2731 10.598 10.5841 10.561C11.0681 10.504 11.6301 10.709 12.1101 10.781C12.6871 10.869 13.2661 10.94 13.8471 10.993C16.3271 11.219 18.8491 11.183 21.3191 10.853C21.7691 10.793 22.2181 10.723 22.6641 10.643C23.0631 10.571 23.5041 10.437 23.7441 10.849C23.9101 11.13 23.9321 11.506 23.9061 11.823C23.8982 11.9614 23.8377 12.0916 23.7371 12.187H23.7381ZM17.5791 16.087C16.7171 16.457 15.7391 16.875 14.4701 16.875C13.9397 16.8737 13.4119 16.8007 12.9011 16.658L13.7781 25.662C13.8431 26.442 14.4951 27.042 15.2781 27.042C15.2781 27.042 16.5211 27.107 16.9361 27.107C17.3831 27.107 18.7221 27.042 18.7221 27.042C19.5051 27.042 20.1561 26.442 20.2211 25.662L21.1611 15.712C20.737 15.5586 20.29 15.4781 19.8391 15.474C19.0131 15.474 18.3481 15.758 17.5791 16.087Z" fill="black"/>
<circle cx="17" cy="17" r="16.5" stroke="#333333"/>
</svg>
