<svg width="34" height="34" viewBox="0 0 34 34" fill="none" xmlns="http://www.w3.org/2000/svg">
<circle cx="17" cy="17" r="16.5" stroke="#333333"/>
<path d="M17 5C10.37 5 5 10.37 5 17C5 22.31 8.435 26.795 13.205 28.385C13.805 28.49 14.03 28.13 14.03 27.815C14.03 27.53 14.015 26.585 14.015 25.58C11 26.135 10.22 24.845 9.98 24.17C9.845 23.825 9.26 22.76 8.75 22.475C8.33 22.25 7.73 21.695 8.735 21.68C9.68 21.665 10.355 22.55 10.58 22.91C11.66 24.725 13.385 24.215 14.075 23.9C14.18 23.12 14.495 22.595 14.84 22.295C12.17 21.995 9.38 20.96 9.38 16.37C9.38 15.065 9.845 13.985 10.61 13.145C10.49 12.845 10.07 11.615 10.73 9.965C10.73 9.965 11.735 9.65 14.03 11.195C14.99 10.925 16.01 10.79 17.03 10.79C18.05 10.79 19.07 10.925 20.03 11.195C22.325 9.635 23.33 9.965 23.33 9.965C23.99 11.615 23.57 12.845 23.45 13.145C24.215 13.985 24.68 15.05 24.68 16.37C24.68 20.975 21.875 21.995 19.205 22.295C19.64 22.67 20.015 23.39 20.015 24.515C20.015 26.12 20 27.41 20 27.815C20 28.13 20.225 28.505 20.825 28.385C23.2073 27.581 25.2775 26.05 26.744 24.0076C28.2106 21.9653 28.9996 19.5144 29 17C29 10.37 23.63 5 17 5Z" fill="black"/>
</svg>
