<svg width="34" height="34" viewBox="0 0 34 34" fill="none" xmlns="http://www.w3.org/2000/svg">
<path d="M11.6079 9.88983C11.6076 10.3908 11.4084 10.8711 11.0539 11.2252C10.6995 11.5793 10.219 11.778 9.71802 11.7778C9.21706 11.7775 8.73671 11.5783 8.38265 11.2239C8.02859 10.8695 7.82983 10.3889 7.83008 9.88794C7.83033 9.38698 8.02958 8.90663 8.38399 8.55258C8.7384 8.19852 9.21895 7.99975 9.71991 8C10.2209 8.00025 10.7012 8.1995 11.0553 8.55391C11.4093 8.90832 11.6081 9.38887 11.6079 9.88983ZM11.6645 13.1765H7.88674V25.0009H11.6645V13.1765ZM17.6334 13.1765H13.8745V25.0009H17.5956V18.7959C17.5956 15.3393 22.1006 15.0182 22.1006 18.7959V25.0009H25.8312V17.5115C25.8312 11.6843 19.1634 11.9015 17.5956 14.7632L17.6334 13.1765Z" fill="#333333"/>
<circle cx="17" cy="17" r="16.5" stroke="#333333"/>
</svg>
