<svg width="154" height="20" viewBox="0 0 154 20" fill="none" xmlns="http://www.w3.org/2000/svg">
<path d="M45.4167 3.13369H53.1283V19.7628H45.4167V3.13369ZM13.5872 10.1652C13.5872 12.5406 12.6506 13.6584 10.6494 13.6584C8.64812 13.6584 7.71046 12.542 7.71046 10.1652V3.13369H0V10.5698C0 17.53 2.78489 20 10.6494 20C18.5139 20 21.2988 17.5257 21.2988 10.5698V3.13369H13.5872V10.1652ZM53.9431 9.31085H60.3952V19.7628H68.1068V9.31085H74.5592V3.13369H53.9431V9.31085ZM36.8228 11.7575L30.793 3.13369H22.2874V19.7628H29.8959V11.1389L35.9205 19.7628H44.4302V3.13369H36.8228V11.7575ZM134.298 6.65164C134.298 2.11484 131.428 0 125.381 0C118.859 0 116.108 2.42341 116.108 8.21921H122.171C122.171 6.2237 123.173 5.51054 125.161 5.51054C127.096 5.51054 127.708 5.98646 127.708 6.72292C127.708 7.69668 127.487 7.69668 122.609 9.28755C117.209 11.0691 115.532 14.5856 115.532 17.9827V19.7642H133.859V14.3658H123.14C123.786 13.5099 125.619 13.2727 129.679 12.1825C132.379 11.4722 134.298 10.1652 134.298 6.65164ZM75.3781 19.7628H92.9231V14.8024H82.7514V13.4008H89.9873V9.50007H82.7514V8.09842H92.9253V3.13369H75.3781V19.7628ZM153.846 10.9264V16.485H151.094V19.7628H144.829V16.485H134.485V10.8726L141.907 0.657888H151.096V10.9206L153.846 10.9264ZM144.828 5.46251L140.873 10.9264H144.828V5.46251ZM115.785 11.4548C115.785 17.0366 113.271 19.7686 108.09 19.7686H93.9089V3.13369H108.09C113.271 3.13369 115.785 5.86567 115.785 11.4548ZM108.261 11.4548C108.261 9.57716 107.513 8.69808 105.95 8.69808H101.433V14.21H105.95C107.513 14.2042 108.261 13.3251 108.261 11.4548Z" fill="#333333"/>
</svg>
