<svg width="24" height="25" viewBox="0 0 24 25" fill="none" xmlns="http://www.w3.org/2000/svg">
<path
  d="M12 9.75336L4.65 17.1779C4.4 17.4304 4.104 17.5526 3.762 17.5445C3.42 17.5365 3.12433 17.4058 2.875 17.1526C2.625 16.9001 2.5 16.6011 2.5 16.2556C2.5 15.9101 2.625 15.6115 2.875 15.3596L10.575 7.60682C10.775 7.4048 11 7.25328 11.25 7.15226C11.5 7.05125 11.75 7.00074 12 7.00074C12.25 7.00074 12.5 7.05125 12.75 7.15226C13 7.25328 13.225 7.4048 13.425 7.60682L21.125 15.3849C21.375 15.6374 21.496 15.932 21.488 16.2687C21.48 16.6055 21.3507 16.9001 21.1 17.1526C20.85 17.4051 20.554 17.5314 20.212 17.5314C19.87 17.5314 19.5743 17.4051 19.325 17.1526L12 9.75336Z" fill="#333"/>
</svg>
