<svg width="29" height="32" viewBox="0 0 29 32" fill="none" xmlns="http://www.w3.org/2000/svg">
<g clip-path="url(#clip0_119_850)">
<path d="M3.7998 22.6667C3.7998 23.403 4.39676 24 5.13314 24H24.0665C24.8028 24 25.3998 23.403 25.3998 22.6667C25.3998 21.9303 24.8029 21.3333 24.0665 21.3333H5.13314C4.39676 21.3333 3.7998 21.9303 3.7998 22.6667ZM3.7998 16C3.7998 16.7364 4.39676 17.3333 5.13314 17.3333H24.0665C24.8028 17.3333 25.3998 16.7364 25.3998 16C25.3998 15.2636 24.8029 14.6667 24.0665 14.6667H5.13314C4.39676 14.6667 3.7998 15.2636 3.7998 16ZM5.13314 8C4.39676 8 3.7998 8.59695 3.7998 9.33333C3.7998 10.0697 4.39676 10.6667 5.13314 10.6667H24.0665C24.8028 10.6667 25.3998 10.0697 25.3998 9.33333C25.3998 8.59695 24.8029 8 24.0665 8H5.13314Z" fill="#292929"/>
</g>
<defs>
<clipPath id="clip0_119_850">
<rect width="28.8" height="32" fill="white" transform="translate(0.200195)"/>
</clipPath>
</defs>
</svg>
